<?xml version="1.0" standalone="no"?>
<!DOCTYPE svg PUBLIC "-//W3C//DTD SVG 20010904//EN"
 "http://www.w3.org/TR/2001/REC-SVG-20010904/DTD/svg10.dtd">
<svg version="1.0" xmlns="http://www.w3.org/2000/svg"
 width="304.000000pt" height="304.000000pt" viewBox="0 0 304.000000 304.000000"
 preserveAspectRatio="xMidYMid meet">
<metadata>
Created by potrace 1.14, written by Peter Selinger 2001-2017
</metadata>
<g transform="translate(0.000000,304.000000) scale(0.100000,-0.100000)"
fill="#000000" stroke="none">
<path d="M1776 2582 c-2 -4 -1 -14 4 -22 7 -11 9 -9 7 8 -1 24 -3 26 -11 14z"/>
<path d="M1617 2573 c-10 -9 -9 -23 1 -23 5 0 9 7 9 15 0 17 -1 18 -10 8z"/>
<path d="M1689 2563 c-13 -16 -12 -17 4 -4 9 7 17 15 17 17 0 8 -8 3 -21 -13z"/>
<path d="M1832 2575 c4 -4 2 -15 -5 -23 -9 -13 -9 -14 1 -8 6 4 12 3 12 -3 0
-18 -20 -23 -26 -6 -5 12 -10 13 -20 4 -11 -9 -15 -7 -20 6 -5 11 -9 13 -14 5
-5 -8 -12 -7 -24 5 -9 9 -16 12 -16 6 0 -10 40 -37 50 -34 3 1 7 -7 7 -19 2
-19 1 -19 -15 -1 -28 30 -60 44 -68 31 -5 -7 -11 -5 -21 7 -7 11 -13 13 -13 6
0 -7 -5 -9 -12 -5 -9 5 -9 2 1 -9 8 -10 9 -17 3 -17 -6 0 -13 4 -16 9 -3 5
-24 7 -46 6 -22 -1 -40 2 -40 6 0 5 -5 9 -12 9 -9 0 -9 -3 -1 -11 13 -13 6
-42 -8 -33 -5 3 -7 10 -4 15 4 5 2 9 -4 9 -5 0 -9 -9 -8 -20 1 -11 6 -20 11
-20 5 0 7 -2 4 -5 -12 -12 -38 8 -33 25 4 14 0 18 -20 18 -14 0 -28 -4 -31 -9
-3 -5 -10 -9 -15 -9 -6 0 -7 5 -4 10 3 6 2 10 -3 10 -14 0 -23 -28 -12 -35 6
-4 15 -3 22 1 6 4 8 3 4 -4 -3 -5 -3 -12 1 -15 5 -2 3 -3 -3 -1 -6 1 -17 -3
-23 -9 -9 -9 -11 -8 -6 6 4 10 2 17 -4 17 -10 0 -15 -14 -12 -32 0 -5 -4 -8
-10 -8 -6 0 -8 9 -3 22 6 21 5 21 -10 9 -13 -11 -19 -12 -29 -2 -9 10 -8 11 7
5 14 -5 17 -4 12 5 -5 7 -14 10 -21 7 -7 -2 -18 1 -25 7 -8 7 -10 7 -7 1 4 -7
-5 -11 -24 -11 -20 0 -26 4 -19 11 5 5 10 15 10 20 0 6 -7 0 -16 -12 -8 -12
-19 -20 -24 -17 -5 3 -13 -3 -19 -12 -9 -17 -11 -17 -25 2 -12 14 -14 15 -10
4 6 -20 -11 -34 -22 -18 -5 8 -2 10 7 5 8 -4 6 -1 -3 7 -10 8 -14 18 -10 22 4
5 1 5 -5 1 -10 -6 -10 -14 2 -37 9 -16 14 -29 13 -30 -23 -6 -37 -5 -32 2 3 5
0 9 -5 9 -6 0 -12 -4 -12 -10 -1 -5 -2 -14 -3 -19 0 -5 -4 -13 -8 -17 -9 -8
-2 31 7 47 4 6 14 8 24 4 12 -5 13 -3 4 6 -7 7 -17 8 -25 3 -20 -13 -32 -11
-46 6 -10 13 -11 12 -6 -4 6 -16 4 -17 -14 -7 -19 10 -21 9 -15 -5 4 -11 2
-15 -4 -11 -6 4 -16 0 -23 -8 -7 -8 -17 -15 -22 -15 -6 0 -5 7 2 15 7 8 8 15
4 15 -5 0 -15 -9 -22 -20 -7 -12 -18 -20 -25 -19 -24 3 -37 -1 -37 -12 0 -8 6
-7 18 2 9 7 14 9 10 5 -4 -5 -2 -16 5 -24 8 -11 8 -14 0 -9 -6 4 -19 -1 -29
-10 -16 -16 -16 -16 -9 7 7 24 6 24 -11 8 -13 -13 -15 -20 -6 -31 9 -11 8 -14
-3 -14 -8 0 -12 4 -9 9 5 7 -10 12 -28 9 -5 0 -8 4 -8 10 0 6 7 9 14 6 10 -4
13 -1 9 9 -7 20 -21 17 -28 -6 -4 -11 -11 -18 -16 -14 -6 3 -15 1 -22 -4 -7
-6 -16 -11 -22 -11 -5 -1 -11 -5 -11 -11 -3 -23 -5 -24 -13 -12 -6 10 -10 10
-20 -1 -9 -12 -8 -15 5 -13 9 0 20 -10 25 -24 8 -22 8 -23 -5 -7 -14 19 -46
23 -46 6 0 -5 -6 -7 -12 -3 -9 5 -9 2 1 -9 15 -19 26 -23 15 -5 -5 7 -3 8 6 3
9 -5 11 -4 6 3 -4 7 -2 12 3 12 14 0 14 -13 -1 -28 -8 -8 -8 -15 2 -29 12 -15
12 -16 0 -5 -21 18 -34 15 -19 -5 11 -15 11 -16 -1 -5 -21 18 -35 15 -19 -5 8
-9 9 -14 4 -11 -6 4 -16 -2 -23 -13 -12 -19 -4 -26 14 -11 5 4 5 2 -1 -5 -11
-14 -58 -6 -49 8 3 5 9 7 14 4 7 -4 22 18 24 37 1 4 10 14 21 22 18 14 18 15
3 16 -17 0 -22 10 -19 37 1 6 -2 14 -7 17 -10 6 -8 -29 3 -55 3 -9 -1 -21 -9
-29 -9 -7 -13 -16 -10 -21 3 -5 1 -9 -5 -9 -5 0 -13 9 -16 21 -4 11 -9 18 -12
16 -2 -3 0 -15 7 -26 13 -26 -4 -29 -19 -3 -9 15 -10 15 -8 -5 0 -12 5 -19 9
-17 4 3 8 -2 8 -10 0 -19 -11 -21 -27 -5 -9 9 -11 7 -9 -7 2 -12 10 -18 22
-16 15 3 16 1 5 -12 -7 -9 -18 -13 -25 -9 -6 4 -17 8 -25 10 -10 1 -11 -1 -2
-10 12 -12 15 -31 3 -23 -4 2 -8 -3 -9 -12 -1 -9 -3 -26 -5 -37 -2 -17 2 -20
27 -18 30 2 30 2 8 -14 l-23 -15 21 -32 21 -31 -25 29 -25 29 -1 -24 c-1 -44
-4 -59 -13 -59 -5 0 -6 10 -2 23 7 25 5 23 -20 -17 -17 -26 -17 -28 -2 -23 10
4 15 3 11 -3 -3 -6 2 -10 12 -11 14 0 15 -2 3 -6 -33 -13 -38 -35 -18 -72 13
-23 14 -29 4 -17 -9 11 -16 24 -16 29 0 4 -4 6 -9 3 -5 -3 -7 -20 -5 -38 1
-18 0 -27 -3 -20 -4 10 -8 9 -17 -4 -12 -15 -13 -14 -11 7 1 13 8 23 14 22 14
-4 15 14 1 22 -5 3 -10 1 -10 -5 0 -6 -5 -8 -11 -5 -7 5 -5 13 5 24 9 10 13
20 10 23 -3 3 2 5 12 5 9 -1 19 5 22 13 5 13 3 13 -13 0 -10 -8 -16 -10 -12
-4 4 7 0 14 -8 17 -10 4 -12 1 -8 -10 5 -13 3 -14 -18 -4 -23 12 -23 12 -4 -4
22 -17 22 -21 -3 -49 -9 -11 -12 -16 -5 -13 6 4 14 3 17 -2 4 -5 -3 -12 -14
-16 -25 -8 -26 -22 -2 -29 18 -6 27 -36 10 -36 -4 0 -8 4 -8 9 0 5 -8 12 -17
15 -15 6 -15 4 2 -14 18 -20 9 -28 -13 -10 -9 7 -9 7 -2 -2 6 -7 5 -18 -1 -30
-7 -12 -6 -24 1 -36 9 -14 10 -13 4 8 -5 20 -4 23 7 13 20 -20 19 -42 -3 -49
-15 -4 -17 -9 -9 -17 18 -18 13 -31 -6 -16 -15 13 -15 12 -2 -8 l14 -23 11 22
c6 11 14 16 17 11 4 -6 0 -19 -7 -29 -11 -15 -12 -22 -3 -33 10 -11 8 -13 -13
-7 -21 6 -22 5 -7 -4 9 -6 15 -16 11 -21 -3 -5 5 -19 18 -30 16 -14 19 -22 11
-25 -7 -3 -13 -10 -13 -15 0 -6 5 -7 10 -4 6 3 10 -1 10 -9 0 -8 8 -14 19 -13
11 0 17 5 15 9 -3 5 -9 6 -13 4 -4 -3 -7 8 -6 24 1 16 -2 27 -6 24 -4 -2 -10
0 -14 6 -3 5 1 10 10 10 9 0 14 4 10 9 -3 6 -14 8 -25 6 -13 -3 -17 1 -13 12
4 10 8 11 13 3 5 -8 9 -6 14 6 5 12 1 23 -10 31 -10 7 -13 13 -8 13 5 0 9 24
9 54 0 30 -3 52 -7 50 -3 -2 -9 0 -13 6 -3 5 1 10 9 10 9 0 16 5 16 10 0 14
-13 13 -28 -2 -7 -7 -12 -8 -12 -2 0 6 12 16 26 22 14 7 23 16 20 21 -3 5 1
12 10 15 8 3 12 2 9 -4 -3 -6 2 -10 12 -11 13 -1 11 -3 -6 -8 -19 -5 -25 -14
-26 -39 -1 -23 4 -36 16 -43 10 -5 20 -18 24 -28 4 -12 12 -18 21 -14 7 3 14
3 14 0 0 -3 -7 -8 -15 -11 -10 -4 -20 3 -27 19 -6 14 -16 25 -21 25 -6 0 -7
-3 -4 -7 4 -3 1 -13 -6 -21 -10 -13 -9 -15 7 -9 18 7 18 6 2 -18 -9 -14 -12
-25 -7 -25 6 0 15 8 20 18 6 9 11 12 11 5 0 -6 -4 -15 -10 -18 -5 -3 -10 -14
-10 -23 0 -14 2 -14 13 -1 6 8 21 21 32 29 11 7 8 1 -7 -14 -16 -15 -28 -30
-29 -34 0 -4 -2 -15 -4 -24 -2 -10 1 -18 6 -18 5 0 9 9 9 19 0 26 15 34 30 17
8 -11 9 -20 0 -35 -6 -12 -8 -21 -4 -21 3 0 1 -7 -6 -15 -7 -8 -17 -12 -23 -8
-6 3 -7 1 -3 -6 4 -6 17 -9 29 -6 12 2 16 2 9 -1 -6 -3 -9 -11 -6 -16 4 -7 2
-8 -4 -4 -6 4 -20 2 -31 -4 -15 -7 -23 -6 -34 5 -13 13 -16 12 -22 -2 -3 -10
-3 -14 1 -11 4 4 15 3 26 -3 15 -8 17 -13 7 -25 -8 -10 -8 -14 0 -14 6 0 11 5
11 10 0 6 5 10 10 10 14 0 8 -23 -9 -36 -10 -8 -11 -13 -2 -18 6 -4 14 0 17 8
3 9 10 13 16 10 5 -3 4 -12 -4 -22 -8 -10 -8 -13 -1 -9 6 4 13 1 16 -5 2 -7 8
-9 13 -5 5 4 3 12 -5 16 -10 6 -9 10 4 15 9 3 13 10 10 16 -9 15 -27 12 -19
-2 4 -7 3 -9 -1 -5 -12 10 -16 39 -5 32 5 -3 11 -1 15 4 3 6 -4 8 -15 6 -11
-2 -18 0 -15 5 3 6 -2 7 -12 4 -15 -5 -15 -4 -3 5 9 6 19 6 24 1 4 -4 15 -6
24 -2 12 4 14 1 9 -13 -4 -9 -2 -24 4 -31 6 -8 8 -14 3 -15 -5 -1 2 -5 16 -9
24 -8 24 -8 3 -9 -13 -1 -23 -5 -23 -11 0 -5 6 -8 13 -6 6 1 9 1 5 -1 -5 -3
-8 -9 -8 -14 0 -6 5 -7 10 -4 6 3 10 2 10 -3 0 -6 -7 -13 -16 -16 -8 -3 -13
-2 -10 3 3 5 -1 12 -10 15 -23 9 -24 8 -24 -11 0 -16 2 -16 11 -3 9 12 10 11
6 -7 -3 -14 -1 -20 8 -17 8 4 11 -4 9 -23 -1 -15 3 -35 10 -43 7 -8 16 -23 20
-34 5 -14 3 -17 -11 -12 -14 6 -15 5 -6 -5 10 -10 16 -9 29 2 9 8 20 14 23 14
3 0 5 3 3 7 -1 5 2 8 7 8 5 0 11 -8 15 -17 3 -10 9 -24 12 -30 3 -7 1 -13 -5
-13 -6 0 -10 6 -9 13 3 13 -31 11 -46 -3 -5 -5 0 -7 11 -4 12 3 24 1 28 -6 4
-7 0 -10 -11 -8 -13 2 -19 -3 -20 -19 -1 -15 3 -20 13 -16 12 5 12 7 2 14 -8
4 -11 11 -7 14 3 3 12 -1 21 -9 8 -8 17 -12 21 -9 3 4 4 -11 2 -33 -4 -31 -3
-35 5 -21 6 11 12 24 13 30 3 18 25 54 26 42 0 -6 -6 -17 -12 -24 -11 -11 -9
-12 11 -6 16 5 21 4 17 -4 -4 -6 4 -15 18 -21 31 -11 35 -20 6 -13 -12 3 -20
0 -20 -6 0 -7 5 -9 13 -5 8 5 8 2 -2 -9 -16 -20 -2 -23 19 -4 12 10 12 9 2 -5
-8 -10 -9 -19 -3 -22 5 -3 11 0 14 6 2 7 8 9 13 5 5 -4 2 -12 -5 -16 -11 -7
-9 -13 7 -29 12 -12 17 -24 12 -27 -6 -4 -10 0 -10 7 0 9 -3 9 -10 -2 -9 -13
-10 -13 -11 0 -1 8 -1 21 0 29 2 8 -2 10 -10 5 -8 -5 -10 -3 -4 6 5 9 4 11 -4
6 -6 -4 -9 -12 -6 -17 4 -5 1 -9 -4 -9 -6 0 -11 -4 -11 -10 0 -5 7 -6 17 -3
11 4 14 3 9 -5 -4 -7 -3 -12 3 -12 6 0 18 -14 27 -31 12 -25 18 -29 25 -18 5
8 9 12 10 9 0 -3 2 -13 4 -22 2 -10 -2 -18 -8 -18 -7 0 -4 -5 6 -11 9 -6 15
-14 12 -20 -4 -5 -2 -9 4 -9 5 0 11 6 14 13 2 6 8 9 12 5 4 -4 3 -13 -3 -21
-6 -7 -7 -18 -3 -26 6 -9 11 -10 15 -2 4 6 2 11 -4 11 -6 0 -8 4 -5 10 12 19
52 -18 49 -45 -1 -14 1 -24 4 -22 9 5 42 -30 35 -36 -9 -10 22 -1 47 13 14 8
28 13 33 12 4 -1 7 6 8 15 0 12 2 13 6 5 3 -7 0 -19 -6 -26 -8 -10 -6 -17 9
-31 20 -18 29 -8 10 11 -7 7 -6 11 3 11 8 0 14 -5 14 -11 0 -6 4 -20 8 -31 5
-16 5 -17 -4 -5 -7 10 -11 11 -11 3 0 -7 -5 -13 -11 -13 -5 0 -7 5 -3 12 5 7
3 8 -6 3 -9 -5 -11 -4 -6 4 5 7 2 10 -6 9 -7 -2 -12 3 -10 10 1 8 -2 11 -9 6
-8 -5 -9 -3 -4 6 5 7 -3 5 -17 -6 -14 -10 -24 -21 -22 -23 2 -2 11 2 21 10 15
12 16 12 10 -3 -4 -12 -2 -15 9 -11 10 4 13 0 8 -13 -4 -14 -3 -16 4 -5 7 10
11 10 17 1 4 -6 13 -9 21 -6 7 3 16 1 19 -4 3 -4 -1 -10 -7 -13 -7 -2 -9 -8
-5 -13 9 -10 28 16 21 28 -3 4 0 8 6 8 6 0 8 5 5 10 -3 6 -1 10 5 10 7 0 9 -7
6 -15 -3 -8 -9 -23 -13 -32 -5 -12 -2 -15 10 -10 11 4 22 -2 33 -18 16 -25 38
-26 28 -2 -3 8 4 13 17 14 17 2 18 -1 8 -13 -17 -20 -5 -28 22 -14 19 11 21
10 16 -4 -4 -9 -2 -16 3 -16 6 0 10 8 10 18 1 15 2 15 17 -3 14 -18 15 -18 9
-2 -4 13 -2 17 6 14 7 -2 12 -13 11 -23 -1 -10 0 -13 3 -6 3 6 9 10 14 7 5 -3
7 3 5 12 -1 10 -9 17 -16 15 -8 -2 -6 5 6 20 11 13 22 25 24 28 2 3 1 -3 -2
-12 -3 -9 1 -22 10 -30 14 -11 16 -11 10 4 -4 13 -2 15 11 11 15 -6 15 -5 3
10 -12 15 -12 17 3 11 10 -4 15 -13 12 -20 -3 -8 -1 -14 3 -14 5 0 11 5 13 12
3 7 7 5 11 -6 5 -12 3 -15 -6 -10 -8 5 -7 2 2 -9 7 -10 9 -17 3 -17 -6 0 -12
6 -15 13 -2 6 -8 9 -12 4 -5 -4 0 -14 11 -21 10 -8 21 -11 24 -8 10 13 32 13
48 0 12 -10 14 -10 8 0 -12 20 32 8 50 -14 15 -19 15 -19 6 1 -6 11 -10 24
-11 30 -1 12 -81 15 -81 3 0 -5 -5 -6 -11 -2 -8 4 -7 9 2 15 8 5 9 9 3 9 -6 0
-11 7 -11 15 0 23 14 18 20 -7 5 -18 9 -19 21 -9 9 7 21 9 28 5 7 -5 18 -9 23
-10 6 -1 16 -3 24 -5 7 -2 16 2 18 9 3 8 -2 10 -14 6 -14 -5 -15 -4 -3 4 8 6
17 9 21 6 4 -2 9 2 12 8 3 7 4 0 2 -17 -1 -18 -9 -31 -19 -33 -9 -2 -16 -8
-16 -14 0 -6 3 -8 7 -5 3 4 12 2 19 -3 9 -8 12 -6 10 6 0 9 6 19 14 21 12 4
12 3 1 -5 -8 -6 -9 -12 -3 -16 5 -3 13 1 16 9 3 9 -1 18 -9 21 -8 4 -12 11 -9
16 4 6 10 5 14 -3 12 -18 43 -21 36 -3 -3 7 -2 13 2 13 19 -3 23 2 13 15 -8
10 -9 16 -1 21 6 4 9 1 8 -7 -2 -7 3 -12 10 -10 9 2 6 -8 -8 -28 -12 -16 -25
-30 -30 -30 -5 0 -14 -10 -20 -22 -11 -22 -10 -22 4 -4 9 11 19 17 22 13 4 -4
1 -15 -7 -24 -12 -16 -12 -17 2 -6 9 7 19 10 23 6 4 -4 4 1 0 12 -7 20 -7 20
15 1 17 -16 21 -17 16 -4 -4 9 -13 19 -21 22 -12 5 -12 9 3 24 17 17 33 11 33
-13 0 -5 -5 -3 -10 5 -15 23 -12 6 5 -26 11 -22 15 -24 15 -10 0 15 3 16 15 6
9 -7 15 -8 15 -2 0 5 -7 13 -16 16 -13 5 -14 9 -4 21 10 12 9 15 -4 15 -9 0
-16 5 -16 11 0 7 8 6 23 -4 12 -8 21 -20 19 -26 -1 -6 3 -11 9 -11 5 0 7 -6 3
-13 -6 -9 -5 -9 7 0 9 7 20 8 29 3 8 -5 18 -6 22 -4 4 3 8 0 8 -6 0 -6 5 -8
11 -4 8 4 7 9 -2 16 -11 8 -11 9 1 5 8 -2 14 -12 14 -21 -1 -9 2 -16 7 -16 5
0 9 7 9 15 0 8 5 15 10 15 6 0 10 -5 10 -11 0 -5 5 -7 12 -3 8 5 5 11 -10 17
-25 11 -26 15 -12 37 9 13 10 13 11 0 1 -8 1 -18 0 -23 0 -4 11 -7 26 -7 26 0
26 0 7 -22 -10 -12 -14 -18 -7 -15 6 4 13 4 16 0 2 -5 2 -3 1 4 -2 7 1 15 6
18 6 4 10 -2 10 -11 0 -25 12 -9 15 21 2 14 -1 25 -7 25 -6 0 -8 -7 -4 -15 4
-11 -4 -8 -24 7 -35 25 -39 34 -10 18 14 -7 26 -7 39 -1 23 13 35 3 20 -16 -9
-10 -8 -13 1 -13 7 0 10 -6 7 -14 -8 -20 4 -28 20 -14 18 14 33 -5 28 -34 -2
-10 0 -16 5 -13 10 6 6 36 -7 59 -8 14 -11 16 -35 16 -6 0 -3 8 7 20 10 11 21
17 25 15 5 -3 11 1 13 7 4 9 6 10 6 1 1 -6 -3 -15 -9 -18 -15 -9 -12 -25 6
-25 9 0 12 -5 8 -12 -5 -7 -3 -8 6 -3 10 6 12 4 7 -8 -3 -8 0 -18 7 -20 16 -6
16 24 1 35 -6 5 -5 8 3 8 7 0 10 5 6 11 -5 8 -9 8 -14 -1 -4 -7 -10 -8 -13 -3
-3 5 3 15 15 22 11 7 17 8 14 2 -4 -5 2 -9 14 -8 14 1 19 6 15 17 -3 9 1 8 10
-4 8 -11 15 -15 15 -10 0 6 7 19 15 30 14 17 14 15 0 -14 -9 -18 -13 -38 -10
-45 4 -7 -1 -3 -9 7 -12 15 -16 16 -16 5 0 -11 -2 -11 -9 -1 -7 11 -9 11 -14
-1 -3 -7 -1 -20 4 -28 5 -8 9 -9 9 -2 0 6 8 10 18 8 9 -1 16 -8 14 -15 -1 -6
2 -9 7 -6 5 4 8 14 6 24 -1 10 2 24 9 33 10 13 13 13 28 -2 14 -15 14 -18 2
-23 -8 -3 -13 -2 -10 2 3 5 -1 9 -8 9 -8 0 -12 -7 -9 -14 3 -8 11 -12 18 -9 7
2 17 0 23 -6 6 -6 12 -6 17 3 5 8 4 10 -3 5 -7 -4 -12 -3 -12 2 0 16 12 21 29
12 11 -5 28 -3 49 7 27 13 35 13 49 2 16 -12 17 -12 6 2 -7 9 -10 18 -7 22 5
5 -21 2 -36 -3 -3 -1 -9 -2 -15 0 -5 1 -15 -7 -22 -16 -7 -10 -13 -13 -13 -6
0 6 -9 9 -19 7 -27 -5 -49 22 -31 38 10 10 12 9 7 -5 -3 -10 -2 -20 3 -23 4
-3 10 1 13 7 3 10 8 9 22 -2 17 -13 18 -13 13 1 -5 13 -2 16 15 12 22 -4 22
-4 3 11 -11 9 -15 16 -9 16 7 0 18 -6 25 -13 20 -18 38 -19 38 -3 0 8 5 18 12
22 8 5 9 2 5 -9 -4 -10 -1 -28 5 -42 9 -21 12 -22 25 -9 8 8 20 11 26 7 8 -4
7 -1 -1 9 -8 10 -9 19 -3 22 5 3 11 3 14 -1 2 -5 2 -2 0 6 -2 8 2 11 11 8 7
-3 18 -1 24 5 8 8 16 7 29 -2 15 -12 16 -12 6 0 -21 24 -14 34 9 14 12 -10 18
-13 14 -6 -6 9 -1 11 18 8 14 -3 28 -1 31 4 3 4 -3 7 -12 5 -10 -1 -28 3 -40
11 -14 9 -24 10 -28 4 -4 -6 -11 -8 -16 -4 -5 3 -6 10 -3 16 5 7 1 9 -9 5 -10
-3 -17 -2 -17 3 0 13 27 13 35 1 3 -5 17 -8 31 -5 16 3 23 1 19 -6 -3 -5 -1
-10 5 -10 7 0 9 7 6 16 -3 9 -6 18 -6 21 0 3 -6 1 -13 -5 -15 -12 -46 2 -33
15 5 4 11 2 13 -5 3 -6 9 -9 14 -6 6 3 5 11 -2 20 -8 10 -8 14 0 14 6 0 11 -5
11 -10 0 -6 8 -5 19 2 11 7 18 16 15 20 -3 4 3 5 13 1 17 -7 17 -5 -1 22 -16
24 -16 27 -3 16 13 -10 17 -10 17 -1 0 10 3 10 14 1 14 -12 25 -2 38 34 1 5
10 8 17 7 13 -3 13 -2 0 14 -12 16 -12 17 1 9 21 -13 40 -15 40 -4 0 6 5 7 10
4 14 -9 1 -28 -14 -22 -7 3 -23 -4 -37 -14 -13 -11 -17 -17 -8 -13 10 3 20 1
24 -5 3 -6 12 -11 18 -11 7 0 7 4 -2 9 -12 8 -10 12 12 22 15 7 27 16 27 21 0
5 5 6 12 2 7 -4 8 -3 4 4 -4 7 5 24 19 38 17 17 21 24 10 20 -13 -5 -16 -2
-11 10 8 20 -12 47 -27 37 -6 -3 -7 -1 -3 6 4 6 12 8 18 5 8 -5 9 -1 5 10 -4
9 -3 15 2 12 11 -7 23 22 15 37 -3 7 1 4 9 -5 8 -10 17 -15 20 -11 4 3 1 13
-6 21 -10 13 -9 14 2 7 11 -6 13 -4 9 7 -6 15 26 51 36 41 3 -4 6 -1 6 4 0 6
-6 13 -12 16 -7 3 -3 4 9 4 17 -1 20 -5 13 -18 -5 -9 -6 -20 -2 -24 4 -5 2 -5
-5 -2 -15 9 -45 -2 -37 -14 3 -5 11 -6 17 -2 20 12 37 12 37 0 0 -7 4 -6 10 3
6 9 6 18 0 24 -20 20 -9 28 13 10 12 -10 17 -12 10 -5 -13 15 -6 44 8 35 5 -3
6 2 3 10 -3 9 -10 16 -16 16 -5 0 -6 10 -3 23 5 17 4 19 -4 7 -8 -11 -9 -8 -7
15 2 17 -4 41 -13 55 -9 13 -11 21 -5 18 6 -4 18 2 27 13 14 16 21 17 37 9 11
-6 20 -7 20 -2 0 5 -11 14 -24 20 -19 8 -26 8 -29 -1 -2 -7 -4 0 -4 16 0 15 4
30 8 33 5 3 6 10 3 16 -4 7 -2 8 4 4 7 -4 12 -2 12 4 0 7 6 8 19 0 25 -13 31
-13 31 1 0 5 -4 8 -9 4 -5 -3 -16 2 -25 10 -9 9 -17 11 -21 5 -3 -5 -12 -10
-18 -10 -7 0 -6 4 3 10 13 9 13 10 0 11 -8 1 -18 1 -21 1 -9 -1 -4 66 5 75 5
4 6 3 2 -4 -4 -8 1 -11 14 -10 20 1 29 17 9 17 -5 0 -7 5 -3 12 5 8 11 5 20
-7 12 -16 11 -22 -4 -39 -10 -11 -11 -16 -3 -11 10 5 12 4 7 -4 -10 -16 -26
-4 -19 14 3 10 1 13 -9 10 -20 -8 -18 -30 4 -44 14 -9 18 -8 18 1 0 8 7 5 15
-6 8 -11 15 -15 15 -10 0 6 -3 14 -7 18 -11 11 -12 36 -1 36 5 0 7 9 3 19 -5
17 -2 19 22 15 15 -3 24 -2 20 2 -4 4 -19 8 -34 10 -39 3 -40 3 -25 12 9 6 5
12 -13 22 -23 12 -35 32 -17 29 26 -4 34 1 22 16 -6 8 -8 20 -4 26 4 7 3 9 -3
6 -12 -8 -25 17 -15 27 3 4 7 14 8 22 1 9 0 13 -3 10 -11 -10 -32 28 -22 40 6
7 4 16 -6 24 -8 7 -12 16 -9 21 3 5 0 9 -5 9 -6 0 -11 -5 -11 -11 0 -5 -4 -8
-9 -5 -7 5 -8 41 0 41 1 0 3 10 4 22 2 15 -2 20 -12 16 -12 -5 -12 -7 -2 -14
8 -4 11 -11 7 -14 -3 -3 -13 2 -23 11 -13 14 -14 19 -3 25 11 7 11 9 0 9 -7 0
-11 4 -8 9 3 5 -2 12 -11 15 -16 7 -43 -16 -43 -36 0 -4 -5 -8 -12 -8 -6 0 -8
3 -5 7 4 3 -1 16 -10 27 -18 21 -18 21 4 3 21 -18 21 -18 29 5 4 13 6 25 5 28
-1 2 6 7 16 11 12 5 8 7 -15 6 -18 0 -28 -3 -21 -7 6 -4 7 -10 3 -12 -5 -3 -2
-3 6 -1 11 3 12 1 4 -7 -13 -13 -64 6 -64 24 0 6 5 5 12 -2 21 -21 32 -13 12
10 -10 12 -13 18 -5 13 9 -5 12 -3 9 6 -3 8 1 19 8 24 10 7 11 14 3 25 -9 12
-10 12 -5 -3 4 -12 2 -17 -6 -14 -7 2 -12 11 -10 21 2 9 -2 16 -8 16 -6 0 -8
6 -4 13 5 8 2 8 -9 -2 -19 -15 -23 -26 -5 -15 7 5 8 3 3 -6 -5 -8 -4 -11 3 -6
7 4 10 -1 7 -14 -3 -14 0 -18 8 -14 8 5 8 2 -1 -7 -11 -12 -14 -12 -22 1 -5 8
-7 17 -4 21 2 4 -3 12 -10 18 -10 8 -16 9 -21 1 -3 -5 -1 -10 4 -10 6 0 11 -4
11 -8 0 -5 -6 -9 -14 -9 -7 0 -13 5 -12 11 3 18 17 37 25 32 4 -3 13 5 20 17
8 12 10 19 6 15 -5 -4 -14 0 -21 10 -9 13 -10 21 -1 32 6 8 1 6 -11 -5 l-24
-20 24 -19 c14 -12 16 -17 6 -13 -9 3 -19 0 -22 -9 -8 -21 -24 -17 -36 9 -11
21 -10 21 4 3 9 -11 19 -17 22 -13 4 4 1 13 -6 22 -7 8 -9 15 -5 15 4 0 2 7
-5 15 -7 8 -17 12 -22 9 -6 -4 -6 -9 2 -14 8 -5 8 -9 -3 -13 -15 -6 -18 15 -4
29 14 14 7 26 -9 14 -13 -11 -19 -10 -37 10 -20 22 -20 22 -1 7 33 -27 35 -20
8 21 -26 38 -42 46 -57 27 -6 -6 -7 -4 -4 6 7 21 -26 42 -42 26 -8 -8 -11 -8
-11 1 0 7 3 12 8 13 4 0 17 2 29 3 12 2 19 -2 16 -7 -4 -6 -1 -7 7 -2 8 5 11
4 6 -3 -4 -7 2 -9 18 -6 14 2 28 -1 32 -8 5 -8 1 -9 -12 -5 -16 6 -17 5 -4 -6
8 -6 16 -19 18 -27 6 -26 17 -30 30 -10 7 12 8 20 2 20 -5 0 -10 -5 -10 -11 0
-5 -5 -7 -10 -4 -8 5 -7 12 2 22 10 12 9 17 -5 25 -10 5 -15 13 -12 19 4 5 -2
6 -11 2 -11 -4 -15 -3 -10 5 4 7 -1 10 -14 7 -12 -2 -26 4 -35 18 -8 12 -15
17 -15 12 0 -6 -5 -3 -10 5 -6 9 -10 10 -10 3 0 -7 8 -17 18 -23 15 -10 15
-11 0 -6 -9 3 -19 0 -22 -7 -3 -9 -5 -8 -5 1 -1 7 -5 10 -11 7 -5 -3 -10 0
-10 7 0 10 -3 9 -11 -2 -9 -13 -10 -12 -5 2 3 10 1 20 -4 23 -14 9 -52 -14
-44 -27 4 -7 2 -8 -5 -4 -15 10 2 32 31 42 19 6 19 6 1 19 -10 7 -22 11 -26 8
-5 -3 -3 -9 4 -14 8 -5 9 -9 3 -9 -6 0 -17 7 -24 15 -7 8 -19 15 -26 15 -8 0
-14 5 -14 11 0 7 9 5 24 -5 16 -10 27 -12 31 -5 5 7 11 7 19 0 7 -6 16 -8 19
-4 6 6 11 -11 8 -29 0 -5 4 -8 10 -8 6 0 9 7 6 14 -4 10 -1 13 9 9 7 -3 14 0
14 7 0 6 -4 9 -10 5 -5 -3 -18 3 -30 15 -11 11 -20 15 -20 9 0 -7 -12 0 -26
14 -15 15 -32 23 -41 20 -13 -5 -13 -2 1 20 17 25 17 25 -4 20 -14 -4 -18 -8
-10 -13 8 -5 8 -10 2 -14 -5 -3 -15 1 -22 9 -10 12 -9 16 3 21 9 3 15 14 14
24 -1 10 -5 16 -9 14 -5 -3 -6 -9 -3 -14 3 -4 -2 -13 -10 -20 -12 -10 -16 -9
-21 4 -3 9 -10 16 -16 16 -5 0 -7 -4 -4 -9 4 -5 3 -11 -1 -14 -5 -2 -2 -2 5 0
8 1 10 -2 6 -9 -4 -7 -3 -8 4 -4 8 5 10 1 5 -10 -5 -14 -3 -16 12 -11 16 7 16
5 4 -9 -12 -15 -14 -14 -23 5 -12 27 -23 27 -31 0 -4 -11 -9 -18 -12 -16 -2 3
0 14 6 26 7 13 8 22 1 26 -5 3 -10 12 -10 18 0 7 4 6 10 -3 6 -9 10 -10 10 -3
0 6 -5 15 -11 19 -6 3 -9 17 -6 30 5 30 -1 31 -12 2 -5 -15 -4 -26 3 -30 8 -5
7 -8 -2 -8 -7 0 -10 -4 -7 -10 3 -5 1 -10 -5 -10 -7 0 -10 6 -7 14 6 15 -16
30 -27 19 -9 -9 -7 -25 2 -19 4 2 9 -4 9 -15 1 -10 -3 -19 -9 -19 -6 0 -8 3
-5 7 4 3 2 12 -5 20 -6 7 -8 16 -5 20 4 3 2 15 -4 27 -10 20 -10 20 5 2 9 -11
16 -15 16 -10 0 10 -72 79 -78 75 -2 -2 -6 0 -9 3 -4 3 -1 6 5 6 7 0 12 5 12
12 0 6 -7 4 -18 -5 -10 -10 -24 -17 -31 -17 -7 0 -3 -9 9 -22 26 -28 25 -33
-2 -35 -13 0 -17 1 -10 4 16 6 16 24 0 21 -11 -3 -13 9 -9 42 0 6 6 9 12 8 6
-2 14 4 16 12 3 9 1 11 -4 5 -4 -5 -17 -12 -28 -13 -16 -3 -18 -1 -7 9 6 7 12
17 12 22 0 5 -9 -1 -20 -14 -10 -13 -19 -19 -20 -13 0 5 5 15 12 22 9 9 9 12
0 12 -7 0 -12 -5 -12 -11 0 -5 -4 -7 -10 -4 -6 4 -7 -1 -4 -12 4 -11 -6 -5
-25 15 -18 18 -29 37 -26 42 3 5 0 12 -7 16 -7 4 -10 4 -6 -1z m-163 -66 c-6
-12 -13 -18 -16 -15 -3 3 -1 12 5 19 7 8 8 18 4 22 -4 5 -1 5 6 1 9 -5 9 -12
1 -27z m71 -13 c0 -6 -5 -4 -10 4 -8 13 -10 13 -10 1 0 -11 -4 -9 -14 4 -8 11
-12 23 -9 28 6 10 43 -22 43 -37z m-109 19 c1 -6 5 -19 11 -30 5 -12 1 -9 -12
7 -18 23 -25 25 -50 18 -27 -8 -39 -2 -25 11 9 9 75 4 76 -6z m179 1 c-2 -9
19 -26 34 -26 5 0 3 6 -3 14 -8 9 -8 16 -2 20 5 4 19 -7 31 -24 12 -16 26 -30
31 -30 6 0 8 4 5 8 -3 5 1 9 9 9 18 0 20 -17 3 -18 -10 0 -10 -2 0 -6 6 -2 12
-9 12 -15 0 -5 -13 0 -29 11 -16 12 -31 18 -34 14 -2 -5 -2 -2 0 6 2 8 -2 11
-13 7 -8 -3 -25 -1 -36 5 -18 10 -20 9 -15 -5 4 -9 2 -16 -3 -16 -5 0 -8 14
-8 30 1 17 5 29 10 28 5 -2 9 -7 8 -12z m-330 -11 c-5 -6 -6 -16 -2 -21 4 -5
5 -8 3 -7 -2 2 -10 -5 -18 -15 -13 -15 -13 -15 -4 5 8 16 7 22 -5 27 -20 8 -9
25 16 23 13 -1 16 -5 10 -12z m223 -25 c3 -11 2 -18 -3 -15 -4 3 -10 14 -13
25 -3 11 -2 18 3 15 4 -3 10 -14 13 -25z m-83 -5 c12 -18 12 -19 -3 -7 -18 15
-41 7 -31 -10 4 -7 2 -8 -5 -4 -9 6 -9 11 -1 21 8 10 7 14 -2 18 -7 3 -3 5 8
4 12 -1 27 -10 34 -22z m132 2 c-7 -8 -8 -18 -4 -22 4 -5 1 -5 -5 -1 -10 5
-10 11 -1 26 7 11 14 17 17 15 2 -3 -1 -11 -7 -18z m-502 0 c0 -5 7 -4 15 3
21 18 26 9 5 -10 -14 -14 -17 -14 -33 0 -14 14 -14 17 -2 17 8 0 15 -5 15 -10z
m64 0 c-5 -13 -44 -41 -44 -31 0 5 41 43 47 44 1 0 0 -6 -3 -13z m246 3 c0 -5
-2 -10 -4 -10 -3 0 -8 5 -11 10 -3 6 -1 10 4 10 6 0 11 -4 11 -10z m-348 -30
c-5 -13 -3 -13 14 0 15 11 16 11 7 0 -14 -15 -46 -23 -37 -9 3 5 0 9 -5 9 -6
0 -11 -5 -11 -12 0 -6 -2 -9 -5 -6 -11 10 6 34 24 34 13 0 17 -5 13 -16z m308
10 c-8 -5 -19 -10 -25 -10 -5 0 -3 5 5 10 8 5 20 10 25 10 6 0 3 -5 -5 -10z
m330 0 c0 -5 -4 -10 -10 -10 -5 0 -10 5 -10 10 0 6 5 10 10 10 6 0 10 -4 10
-10z m190 -40 c-5 -3 -5 -12 0 -20 13 -21 12 -27 -4 -27 -8 0 -11 7 -9 18 3 9
-1 20 -8 25 -9 5 -10 2 -6 -10 4 -11 3 -15 -4 -11 -6 4 -8 13 -5 20 3 8 -2 19
-10 25 -28 24 -13 30 20 8 19 -13 31 -25 26 -28z m-992 -7 c-6 -7 -14 -10 -20
-7 -5 3 -15 0 -23 -6 -11 -9 -15 -9 -15 -1 0 6 5 11 10 11 6 0 9 5 8 12 -2 7
2 12 9 13 6 0 15 3 19 8 12 12 24 -16 12 -30z m42 31 c0 -8 -19 -13 -24 -6 -3
5 1 9 9 9 8 0 15 -2 15 -3z m800 -3 c0 -6 -4 -12 -8 -15 -5 -3 -9 1 -9 9 0 8
4 15 9 15 4 0 8 -4 8 -9z m-925 -67 c-9 -16 -14 -21 -11 -12 3 10 1 20 -5 24
-6 4 -6 11 2 20 21 26 33 -1 14 -32z m112 24 c-3 -8 -6 -5 -6 6 -1 11 2 17 5
13 3 -3 4 -12 1 -19z m-47 -12 c0 -3 -4 -8 -10 -11 -5 -3 -10 -1 -10 4 0 6 5
11 10 11 6 0 10 -2 10 -4z m985 -26 c3 -6 -1 -7 -9 -4 -18 7 -21 14 -7 14 6 0
13 -4 16 -10z m-1225 -32 c-11 -12 -17 -24 -14 -27 3 -3 13 3 21 14 8 11 13
14 11 6 -2 -8 -15 -21 -28 -30 -14 -10 -21 -11 -16 -3 4 7 2 12 -6 12 -10 0
-10 2 1 9 8 5 10 14 6 21 -5 8 -4 11 3 6 6 -3 13 -2 17 4 3 5 11 10 16 10 5 0
1 -10 -11 -22z m60 6 c0 -2 -7 -4 -15 -4 -8 0 -15 4 -15 10 0 5 7 7 15 4 8 -4
15 -8 15 -10z m1271 -17 c-10 -9 -11 -8 -5 6 3 10 9 15 12 12 3 -3 0 -11 -7
-18z m-1276 -7 c-3 -5 -12 -10 -18 -10 -7 0 -6 4 3 10 19 12 23 12 15 0z
m1403 -16 c5 3 17 -3 27 -14 21 -23 10 -25 -25 -5 -33 19 -40 18 -34 -2 5 -14
4 -15 -4 -4 -15 21 -4 45 14 30 7 -6 17 -8 22 -5z m-81 -29 c0 -8 -4 -12 -9
-9 -5 3 -6 10 -3 15 9 13 12 11 12 -6z m-1413 -23 c3 -5 -1 -9 -9 -9 -8 0 -15
4 -15 9 0 4 4 8 9 8 6 0 12 -4 15 -8z m1473 -17 c0 -8 -4 -12 -9 -9 -5 3 -6
10 -3 15 9 13 12 11 12 -6z m37 -3 c3 -5 -1 -9 -9 -9 -8 0 -12 4 -9 9 3 4 7 8
9 8 2 0 6 -4 9 -8z m-1619 -82 c17 -7 17 -9 3 -9 -10 -1 -18 -5 -18 -9 0 -5
-7 -17 -15 -28 -15 -18 -15 -18 -8 0 4 12 3 17 -4 13 -17 -11 -23 -46 -7 -40
8 3 14 0 14 -7 0 -6 -4 -8 -10 -5 -5 3 -10 2 -10 -4 0 -5 -9 -8 -20 -6 -11 2
-20 -1 -20 -7 0 -6 -3 -9 -6 -6 -3 4 2 20 11 37 9 18 13 37 8 44 -5 9 -4 9 8
0 11 -9 19 -7 37 7 15 13 18 20 10 23 -7 3 -8 5 -3 6 6 0 19 -4 30 -9z m40 -9
c3 -5 2 -12 -3 -15 -5 -3 -9 1 -9 9 0 17 3 19 12 6z m-38 -44 c0 -8 -6 -14
-13 -14 -7 0 -10 6 -7 14 3 7 8 13 12 13 4 0 8 -6 8 -13z m1805 -10 c-7 -8
-10 -17 -7 -20 3 -4 2 -5 -2 -2 -11 8 -13 36 -2 29 5 -3 9 0 9 7 0 7 3 9 6 6
4 -4 2 -13 -4 -20z m-1852 -72 c-7 -8 -17 -15 -23 -15 -6 0 -2 7 9 15 25 19
30 19 14 0z m2008 -130 c-3 -3 -9 2 -12 12 -6 14 -5 15 5 6 7 -7 10 -15 7 -18z
m-2068 -30 c-7 -8 -18 -15 -24 -15 -6 0 -2 7 8 15 25 19 32 19 16 0z m8 -50
c-3 -3 -9 2 -12 12 -6 14 -5 15 5 6 7 -7 10 -15 7 -18z m2183 5 c1 -5 2 -18 2
-27 1 -10 10 -23 22 -30 14 -9 16 -12 5 -13 -13 0 -13 -1 0 -10 8 -5 11 -10 5
-10 -13 1 -52 30 -39 30 5 0 0 7 -10 15 -11 8 -15 15 -8 15 6 0 9 9 7 20 -2
11 0 20 6 20 5 0 10 -4 10 -10z m-2281 -40 c0 -5 -4 -10 -10 -10 -5 0 -10 5
-10 10 0 6 5 10 10 10 6 0 10 -4 10 -10z m95 -23 c3 -4 2 -5 -2 -2 -3 3 -13
-1 -21 -8 -13 -10 -14 -9 -7 2 6 11 4 13 -9 8 -10 -4 -15 -3 -11 3 6 10 41 8
50 -3z m2195 -32 c0 -2 -6 -5 -13 -8 -8 -3 -14 1 -14 8 0 7 6 11 14 8 7 -3 13
-6 13 -8z m40 -25 c6 -11 8 -25 5 -30 -3 -5 -1 -11 4 -14 6 -4 8 7 6 24 -3 25
-2 28 10 17 8 -7 10 -16 5 -21 -5 -5 -1 -21 11 -38 12 -17 16 -28 9 -28 -8 0
-9 -7 -5 -17 4 -10 8 -24 8 -30 0 -7 4 -13 9 -13 4 0 8 -4 8 -8 0 -14 -58 -8
-72 8 -11 12 -11 12 2 3 19 -14 34 -5 38 21 3 17 2 18 -13 6 -13 -11 -18 -11
-28 0 -10 10 -9 12 5 7 10 -3 20 -2 23 3 3 5 -3 11 -12 13 -13 3 -12 5 5 6 13
0 20 5 17 11 -4 6 -11 7 -17 4 -6 -4 -8 -2 -4 4 3 6 1 14 -6 19 -15 9 -38 48
-38 63 0 17 19 11 30 -10z m-2290 -10 c0 -5 -4 -10 -10 -10 -5 0 -10 5 -10 10
0 6 5 10 10 10 6 0 10 -4 10 -10z m56 -12 c4 -6 3 -8 -3 -5 -6 4 -16 0 -23 -8
-14 -17 -30 -20 -30 -4 0 5 4 8 9 5 5 -3 14 1 21 9 15 18 17 18 26 3z m2202
-19 c-3 -8 -7 -3 -11 10 -4 17 -3 21 5 13 5 -5 8 -16 6 -23z m-2204 -17 c3 -5
-1 -9 -9 -9 -8 0 -12 4 -9 9 3 4 7 8 9 8 2 0 6 -4 9 -8z m-107 -15 c0 -8 -6
-14 -14 -14 -17 0 -17 14 0 20 6 3 12 6 13 6 0 1 1 -5 1 -12z m2335 6 c-6 -2
-9 -10 -6 -15 4 -7 2 -8 -5 -4 -13 9 -5 26 12 25 9 0 8 -2 -1 -6z m-2322 -95
c0 -6 -6 -5 -15 2 -8 7 -15 14 -15 16 0 2 7 1 15 -2 8 -4 15 -11 15 -16z
m2330 -14 c0 -8 -19 -13 -24 -6 -3 5 1 9 9 9 8 0 15 -2 15 -3z m31 -27 c-10
-9 -11 -8 -5 6 3 10 9 15 12 12 3 -3 0 -11 -7 -18z m44 -6 c6 -11 -29 -33 -39
-24 -7 7 12 33 25 33 4 0 10 -4 14 -9z m-2309 -37 c1 -9 0 -13 -4 -10 -3 4 -7
14 -8 22 -1 9 0 13 4 10 3 -4 7 -14 8 -22z m19 -42 c-3 -3 -11 0 -18 7 -9 10
-8 11 6 5 10 -3 15 -9 12 -12z m4 -25 c8 -10 7 -14 -2 -14 -8 0 -14 6 -14 14
0 7 1 13 2 13 2 0 8 -6 14 -13z m2198 -12 c0 -8 -4 -12 -9 -9 -5 3 -6 10 -3
15 9 13 12 11 12 -6z m58 -55 c-3 -5 -14 -10 -23 -9 -14 0 -13 2 3 9 27 11 27
11 20 0z m-45 -14 c0 -2 -8 -10 -17 -17 -16 -13 -17 -12 -4 4 13 16 21 21 21
13z m-2181 -42 c-9 -12 -7 -20 12 -42 l24 -27 -26 23 c-27 24 -36 74 -11 65
10 -4 10 -9 1 -19z m22 -17 c-10 -9 -11 -8 -5 6 3 10 9 15 12 12 3 -3 0 -11
-7 -18z m2196 7 c-3 -3 -12 -4 -19 -1 -8 3 -5 6 6 6 11 1 17 -2 13 -5z m-2224
-39 c19 -19 32 -35 29 -36 -4 -1 4 -5 18 -10 24 -8 24 -8 -5 -6 -22 1 -30 -2
-29 -14 1 -9 -5 -16 -13 -16 -8 0 -12 6 -9 12 2 6 -4 16 -14 23 -12 7 -17 22
-17 46 1 20 2 36 3 36 1 0 18 -16 37 -35z m77 -11 c0 -8 -19 -13 -24 -6 -3 5
1 9 9 9 8 0 15 -2 15 -3z m2137 -34 c1 -11 -2 -20 -7 -20 -6 0 -7 17 -1 38 3
8 7 -1 8 -18z m-2120 -15 c0 -8 -4 -12 -9 -9 -5 3 -6 10 -3 15 9 13 12 11 12
-6z m-30 -27 c-3 -8 -6 -5 -6 6 -1 11 2 17 5 13 3 -3 4 -12 1 -19z m2147 9 c4
4 4 -1 0 -11 -5 -13 -4 -17 3 -13 14 9 34 -15 25 -30 -5 -8 -13 -7 -26 3 -11
8 -17 14 -13 14 4 0 3 9 -3 20 -6 11 -16 17 -22 14 -7 -4 -8 -2 -4 5 6 8 12 9
20 2 7 -6 16 -8 20 -4z m-2100 -19 c-3 -4 -11 -5 -19 -1 -21 7 -19 12 4 10 11
0 18 -5 15 -9z m2076 -17 c0 -5 -7 -12 -16 -15 -14 -5 -15 -4 -4 9 14 17 20
19 20 6z m-2110 -19 c0 -15 -11 -21 -27 -15 -12 5 -12 7 -1 14 17 11 28 11 28
1z m2060 -56 c0 -2 -7 -7 -16 -10 -8 -3 -12 -2 -9 4 6 10 25 14 25 6z m-67
-81 c-7 -21 -12 -19 -10 4 0 11 5 18 9 15 4 -3 5 -11 1 -19z m-1856 -22 c0
-14 -1 -14 -12 1 -7 8 -16 12 -20 8 -5 -4 -5 -2 -1 5 9 16 33 6 33 -14z m1863
-17 c0 -2 -7 -7 -16 -10 -8 -3 -12 -2 -9 4 6 10 25 14 25 6z m17 -11 c-4 -8
-2 -17 3 -20 6 -4 3 -17 -7 -32 -15 -22 -18 -23 -28 -9 -8 11 -15 12 -22 5 -8
-8 -17 -8 -30 -1 -17 10 -17 11 2 11 58 2 75 6 75 18 0 7 -7 10 -17 6 -16 -5
-15 -3 2 15 24 25 29 27 22 7z m-1893 -20 c-16 -13 -16 -14 -1 -9 10 4 17 1
17 -6 0 -6 5 -8 12 -4 7 4 8 3 4 -5 -6 -8 -12 -9 -20 -2 -7 6 -15 8 -19 5 -3
-3 -11 4 -17 16 -7 12 -8 20 -3 17 5 -3 15 -2 23 3 22 14 26 2 4 -15z m72 -14
c0 -11 -5 -17 -13 -14 -10 4 -11 9 -2 19 15 18 15 18 15 -5z m12 -31 c9 7 9 7
2 -2 -12 -15 -13 -31 -1 -24 10 7 24 -22 16 -34 -3 -5 -1 -11 5 -15 5 -3 10
-1 10 6 0 8 3 9 13 0 8 -6 18 -7 22 -3 5 4 4 1 0 -7 -6 -11 -4 -13 11 -8 18 7
18 7 0 -8 -11 -8 -16 -15 -12 -15 5 0 3 -6 -3 -14 -10 -12 -8 -14 15 -12 15 2
33 11 41 21 7 11 13 14 13 9 0 -6 -13 -22 -28 -37 l-28 -27 -22 20 c-20 19
-26 33 -23 52 0 4 -10 15 -23 23 -13 9 -29 29 -36 45 -8 20 -17 27 -28 23 -14
-4 -15 -3 -3 5 9 7 21 7 31 2 10 -5 22 -5 28 0z m67 -10 c3 -5 1 -10 -4 -10
-6 0 -11 5 -11 10 0 6 2 10 4 10 3 0 8 -4 11 -10z m-105 -14 c0 -11 -19 -15
-25 -6 -3 5 1 10 9 10 9 0 16 -2 16 -4z m103 -19 c4 3 7 1 7 -5 0 -19 -15 -14
-36 11 -19 22 -19 22 2 4 11 -9 24 -14 27 -10z m1547 -59 c0 -6 -6 -5 -15 2
-8 7 -15 14 -15 16 0 2 7 1 15 -2 8 -4 15 -11 15 -16z m-1505 -8 c-3 -5 -11
-10 -16 -10 -6 0 -7 5 -4 10 3 6 11 10 16 10 6 0 7 -4 4 -10z m1440 1 c3 -5 2
-12 -3 -15 -5 -3 -9 1 -9 9 0 17 3 19 12 6z m-1320 -41 c3 -5 1 -10 -4 -10 -6
0 -11 5 -11 10 0 6 2 10 4 10 3 0 8 -4 11 -10z m20 -40 c3 -5 1 -10 -4 -10 -6
0 -11 5 -11 10 0 6 2 10 4 10 3 0 8 -4 11 -10z m1273 -7 c20 -8 21 -11 10 -21
-12 -9 -19 -7 -37 12 -23 25 -16 27 27 9z m-44 -45 c-10 -10 -13 -18 -8 -18 5
0 2 -4 -6 -10 -19 -12 -33 9 -18 27 7 9 7 18 -3 31 -11 14 -11 15 1 5 21 -19
34 -16 19 5 -11 14 -9 13 9 -2 21 -18 21 -20 6 -38z m-1178 15 c-6 -6 -36 9
-36 18 0 5 9 4 20 -3 10 -7 18 -14 16 -15z m61 14 c-16 -11 -16 -13 2 -29 11
-9 23 -13 27 -10 5 4 3 0 -4 -10 -7 -9 -21 -15 -30 -13 -9 1 -26 -2 -37 -8
-17 -9 -18 -8 -7 5 20 24 -13 35 -44 15 -7 -4 -17 0 -24 8 -7 8 -17 12 -24 8
-6 -3 -3 2 6 12 15 16 19 17 40 4 13 -8 33 -14 45 -13 12 1 20 -3 17 -7 -3 -5
-1 -9 5 -9 15 0 23 18 11 25 -13 8 6 35 23 35 6 0 3 -6 -6 -13z m973 3 c0 -5
-2 -10 -4 -10 -3 0 -8 5 -11 10 -3 6 -1 10 4 10 6 0 11 -4 11 -10z m44 2 c3
-5 -1 -9 -9 -9 -8 0 -12 4 -9 9 3 4 7 8 9 8 2 0 6 -4 9 -8z m34 -12 c-7 -10
-14 -17 -17 -15 -4 4 18 35 25 35 2 0 -1 -9 -8 -20z m-597 -7 c13 -16 12 -17
-3 -4 -17 13 -22 21 -14 21 2 0 10 -8 17 -17z m-410 -11 c-7 -2 -18 1 -23 6
-8 8 -4 9 13 5 13 -4 18 -8 10 -11z m179 2 c0 -2 -7 -4 -15 -4 -8 0 -15 4 -15
10 0 5 7 7 15 4 8 -4 15 -8 15 -10z m317 -14 c-6 -11 -16 -20 -21 -20 -5 0 -2
8 7 18 10 10 14 22 10 27 -5 4 -2 5 4 1 10 -5 10 -11 0 -26z m-287 -1 c0 -5
-4 -9 -8 -9 -5 0 -9 7 -9 15 0 8 4 12 9 9 4 -3 8 -9 8 -15z m717 15 c-3 -3
-12 -4 -19 -1 -8 3 -5 6 6 6 11 1 17 -2 13 -5z m-614 -19 c-3 -9 -8 -14 -10
-11 -3 3 -2 9 2 15 9 16 15 13 8 -4z m234 -7 c-3 -8 -6 -5 -6 6 -1 11 2 17 5
13 3 -3 4 -12 1 -19z m73 16 c0 -8 -19 -13 -24 -6 -3 5 1 9 9 9 8 0 15 -2 15
-3z m-165 -22 c-3 -3 -11 0 -18 7 -9 10 -8 11 6 5 10 -3 15 -9 12 -12z m70
-12 c7 0 16 -7 19 -16 5 -14 4 -15 -9 -4 -11 9 -19 9 -28 2 -8 -7 -18 -7 -27
-2 -8 5 -18 6 -22 4 -4 -3 -8 0 -8 6 0 7 8 9 20 5 14 -4 22 -1 27 11 4 11 8
13 11 6 2 -7 10 -12 17 -12z"/>
<path d="M1030 2419 c0 -5 5 -7 10 -4 6 3 10 8 10 11 0 2 -4 4 -10 4 -5 0 -10
-5 -10 -11z"/>
<path d="M955 2400 c-3 -5 -1 -10 4 -10 6 0 11 5 11 10 0 6 -2 10 -4 10 -3 0
-8 -4 -11 -10z"/>
<path d="M566 2075 c-9 -26 -7 -32 5 -12 6 10 9 21 6 23 -2 3 -7 -2 -11 -11z"/>
<path d="M2760 1681 c0 -6 4 -13 10 -16 6 -3 7 1 4 9 -7 18 -14 21 -14 7z"/>
<path d="M2825 1460 c-3 -6 1 -7 9 -4 18 7 21 14 7 14 -6 0 -13 -4 -16 -10z"/>
<path d="M563 1193 c0 -13 6 -19 14 -16 9 3 11 0 7 -10 -7 -18 12 -32 22 -16
3 6 -5 23 -19 37 -24 24 -26 24 -24 5z"/>
<path d="M867 764 c3 -7 9 -14 14 -14 14 0 10 17 -5 23 -10 4 -13 1 -9 -9z"/>
<path d="M920 721 c11 -8 12 -11 2 -11 -7 0 -10 -4 -7 -10 10 -16 23 -12 21 7
-2 9 -9 19 -17 21 -11 3 -11 1 1 -7z"/>
<path d="M2370 616 c0 -2 8 -10 18 -17 15 -13 16 -12 3 4 -13 16 -21 21 -21
13z"/>
<path d="M2334 568 l-19 -23 23 19 c21 18 27 26 19 26 -2 0 -12 -10 -23 -22z"/>
<path d="M1110 576 c0 -2 6 -9 14 -15 11 -9 16 -9 22 0 4 8 3 9 -4 5 -7 -4
-12 -2 -12 3 0 6 -4 11 -10 11 -5 0 -10 -2 -10 -4z"/>
<path d="M1226 552 c-3 -5 1 -9 9 -9 8 0 12 4 9 9 -3 4 -7 8 -9 8 -2 0 -6 -4
-9 -8z"/>
<path d="M1868 2538 c5 -5 16 -8 23 -6 8 3 3 7 -10 11 -17 4 -21 3 -13 -5z"/>
<path d="M1368 2519 c-3 -17 0 -26 9 -26 15 0 15 3 4 32 -7 18 -8 17 -13 -6z"/>
<path d="M1195 2510 c-3 -5 -1 -10 4 -10 6 0 11 5 11 10 0 6 -2 10 -4 10 -3 0
-8 -4 -11 -10z"/>
<path d="M2030 2470 c6 -11 13 -20 16 -20 2 0 0 9 -6 20 -6 11 -13 20 -16 20
-2 0 0 -9 6 -20z"/>
<path d="M945 2460 c-3 -6 1 -7 9 -4 18 7 21 14 7 14 -6 0 -13 -4 -16 -10z"/>
<path d="M2064 2448 c3 -15 26 -23 26 -8 0 6 -4 9 -9 6 -5 -4 -12 -1 -14 4 -3
6 -4 5 -3 -2z"/>
<path d="M845 2420 c-3 -6 1 -7 9 -4 18 7 21 14 7 14 -6 0 -13 -4 -16 -10z"/>
<path d="M2097 2423 c-4 -3 -7 -13 -7 -22 1 -13 3 -13 11 2 11 19 8 33 -4 20z"/>
<path d="M2153 2399 c-2 -23 3 -25 10 -4 4 8 3 16 -1 19 -4 3 -9 -4 -9 -15z"/>
<path d="M869 2408 c0 -2 -2 -11 -4 -21 -3 -15 -1 -16 11 -6 16 13 19 29 4 29
-5 0 -10 -1 -11 -2z"/>
<path d="M788 2373 c7 -3 16 -2 19 1 4 3 -2 6 -13 5 -11 0 -14 -3 -6 -6z"/>
<path d="M739 2353 c-13 -17 -13 -17 6 -3 11 8 22 16 24 17 2 2 0 3 -6 3 -6 0
-17 -8 -24 -17z"/>
<path d="M2279 2348 c-5 -18 -6 -38 -1 -34 7 8 12 36 6 36 -2 0 -4 -1 -5 -2z"/>
<path d="M2301 2316 c-9 -11 -9 -16 1 -22 7 -4 10 -4 6 1 -4 4 -3 14 3 22 6 7
9 13 6 13 -2 0 -10 -6 -16 -14z"/>
<path d="M634 2240 c0 -13 4 -16 10 -10 7 7 7 13 0 20 -6 6 -10 3 -10 -10z"/>
<path d="M2380 2226 c0 -2 7 -6 15 -10 8 -3 15 -1 15 4 0 6 -7 10 -15 10 -8 0
-15 -2 -15 -4z"/>
<path d="M2357 2213 c-11 -10 -8 -20 7 -26 10 -4 12 0 9 14 -6 21 -7 22 -16
12z"/>
<path d="M2430 2195 c0 -8 4 -15 10 -15 5 0 7 7 4 15 -4 8 -8 15 -10 15 -2 0
-4 -7 -4 -15z"/>
<path d="M2525 2120 c-3 -5 -1 -10 4 -10 6 0 11 5 11 10 0 6 -2 10 -4 10 -3 0
-8 -4 -11 -10z"/>
<path d="M515 2100 c3 -5 8 -10 11 -10 2 0 4 5 4 10 0 6 -5 10 -11 10 -5 0 -7
-4 -4 -10z"/>
<path d="M2527 2074 c-10 -14 -14 -23 -9 -22 5 2 18 -8 29 -21 17 -21 21 -22
26 -8 3 9 1 19 -5 23 -7 4 -8 3 -4 -4 4 -7 2 -12 -5 -12 -6 0 -9 8 -6 19 4 15
1 18 -12 13 -14 -5 -14 -4 -2 11 8 10 12 19 10 21 -2 2 -12 -7 -22 -20z"/>
<path d="M2570 2070 c6 -11 13 -20 16 -20 2 0 0 9 -6 20 -6 11 -13 20 -16 20
-2 0 0 -9 6 -20z"/>
<path d="M450 2020 c0 -5 5 -10 11 -10 5 0 7 5 4 10 -3 6 -8 10 -11 10 -2 0
-4 -4 -4 -10z"/>
<path d="M515 2021 c6 -11 4 -13 -8 -8 -11 4 -14 2 -10 -9 3 -7 9 -14 13 -14
10 0 7 -26 -3 -36 -4 -4 -7 0 -7 9 0 9 -4 18 -9 21 -4 3 -6 -5 -4 -18 3 -13 0
-27 -6 -30 -14 -9 -15 -36 -1 -36 5 0 17 14 25 30 9 17 20 28 25 25 6 -4 10
-1 10 4 0 6 -5 11 -12 11 -6 0 -1 12 13 27 13 14 18 23 11 19 -7 -4 -20 -2
-29 6 -14 11 -16 11 -8 -1z m-22 -96 c-3 -9 -8 -14 -10 -11 -3 3 -2 9 2 15 9
16 15 13 8 -4z"/>
<path d="M449 1963 c-12 -14 -12 -16 0 -8 11 6 13 4 8 -9 -4 -9 -3 -15 2 -11
6 3 9 14 8 25 -2 24 -1 24 -18 3z"/>
<path d="M405 1920 c-3 -6 1 -7 9 -4 18 7 21 14 7 14 -6 0 -13 -4 -16 -10z"/>
<path d="M2690 1911 c0 -6 4 -13 10 -16 6 -3 7 1 4 9 -7 18 -14 21 -14 7z"/>
<path d="M433 1895 c0 -7 6 -11 14 -8 7 3 13 6 13 8 0 2 -6 5 -13 8 -8 3 -14
-1 -14 -8z"/>
<path d="M475 1880 c3 -5 8 -10 11 -10 2 0 4 5 4 10 0 6 -5 10 -11 10 -5 0 -7
-4 -4 -10z"/>
<path d="M2665 1873 c-5 -14 -3 -15 6 -6 6 6 19 9 28 6 14 -4 14 -3 1 6 -21
15 -27 14 -35 -6z"/>
<path d="M2735 1841 c-3 -5 -2 -12 3 -15 5 -3 9 1 9 9 0 17 -3 19 -12 6z"/>
<path d="M420 1829 c0 -5 -4 -7 -10 -4 -5 3 -18 2 -27 -4 -15 -8 -12 -9 12 -7
16 2 31 8 33 15 2 6 1 11 -2 11 -3 0 -6 -5 -6 -11z"/>
<path d="M470 1819 c0 -5 5 -7 10 -4 6 3 10 8 10 11 0 2 -4 4 -10 4 -5 0 -10
-5 -10 -11z"/>
<path d="M2766 1798 c3 -5 10 -6 15 -3 13 9 11 12 -6 12 -8 0 -12 -4 -9 -9z"/>
<path d="M350 1756 c7 -7 13 -7 20 0 6 6 3 10 -10 10 -13 0 -16 -4 -10 -10z"/>
<path d="M2815 1741 c-3 -5 -2 -12 3 -15 5 -3 9 1 9 9 0 17 -3 19 -12 6z"/>
<path d="M356 1722 c-3 -5 1 -9 9 -9 8 0 12 4 9 9 -3 4 -7 8 -9 8 -2 0 -6 -4
-9 -8z"/>
<path d="M339 1673 c-13 -16 -12 -17 4 -4 9 7 17 15 17 17 0 8 -8 3 -21 -13z"/>
<path d="M364 1639 c-4 -7 -3 -9 4 -5 5 3 13 0 15 -6 4 -9 6 -10 6 -1 1 17
-16 25 -25 12z"/>
<path d="M2834 1642 c4 -3 14 -7 22 -8 9 -1 13 0 10 4 -4 3 -14 7 -22 8 -9 1
-13 0 -10 -4z"/>
<path d="M2856 1582 c-3 -5 1 -9 9 -9 8 0 12 4 9 9 -3 4 -7 8 -9 8 -2 0 -6 -4
-9 -8z"/>
<path d="M2880 1560 c-9 -6 -10 -10 -3 -10 6 0 15 5 18 10 8 12 4 12 -15 0z"/>
<path d="M2870 1536 c0 -2 8 -10 18 -17 15 -13 16 -12 3 4 -13 16 -21 21 -21
13z"/>
<path d="M366 1485 c-11 -8 -15 -15 -9 -15 6 0 16 7 23 15 16 19 11 19 -14 0z"/>
<path d="M500 1480 c0 -11 -7 -23 -15 -26 -8 -4 -15 -10 -15 -16 0 -5 5 -6 10
-3 6 3 10 1 10 -6 0 -15 13 -4 16 14 1 7 5 19 9 28 3 10 2 20 -4 24 -7 3 -11
-2 -11 -15z"/>
<path d="M2868 1493 c7 -3 16 -2 19 1 4 3 -2 6 -13 5 -11 0 -14 -3 -6 -6z"/>
<path d="M394 1453 c3 -20 21 -28 31 -14 4 7 0 8 -11 4 -11 -4 -15 -3 -10 5 3
6 2 13 -3 16 -5 4 -8 -2 -7 -11z"/>
<path d="M2910 1366 c0 -2 7 -7 16 -10 8 -3 12 -2 9 4 -6 10 -25 14 -25 6z"/>
<path d="M435 1300 c3 -5 8 -10 11 -10 2 0 4 5 4 10 0 6 -5 10 -11 10 -5 0 -7
-4 -4 -10z"/>
<path d="M2849 1294 c-9 -11 -9 -18 -1 -26 7 -7 12 -9 12 -5 0 4 10 3 23 -3
20 -10 20 -10 5 3 -19 15 -25 32 -8 22 6 -3 10 -2 10 3 0 17 -28 21 -41 6z
m14 -9 c-3 -9 -8 -14 -10 -11 -3 3 -2 9 2 15 9 16 15 13 8 -4z"/>
<path d="M2913 1265 c0 -8 4 -12 9 -9 5 3 6 10 3 15 -9 13 -12 11 -12 -6z"/>
<path d="M478 1263 c7 -3 16 -2 19 1 4 3 -2 6 -13 5 -11 0 -14 -3 -6 -6z"/>
<path d="M497 1209 c4 -13 8 -18 11 -10 2 7 -1 18 -6 23 -8 8 -9 4 -5 -13z"/>
<path d="M2836 1211 c-11 -12 -15 -25 -10 -33 5 -7 9 -17 9 -22 0 -5 11 -10
24 -11 l23 -2 -22 17 c-15 11 -19 19 -11 24 6 4 11 2 11 -3 0 -6 5 -11 12 -11
9 0 9 3 0 12 -17 17 -15 33 2 19 11 -9 16 -9 22 1 4 7 3 10 -1 5 -5 -4 -16 0
-25 8 -15 14 -19 13 -34 -4z m14 -11 c-6 -11 -13 -20 -16 -20 -2 0 0 9 6 20 6
11 13 20 16 20 2 0 0 -9 -6 -20z"/>
<path d="M516 1173 c-6 -14 -5 -15 5 -6 7 7 10 15 7 18 -3 3 -9 -2 -12 -12z"/>
<path d="M2896 1173 c-6 -14 -5 -15 5 -6 7 7 10 15 7 18 -3 3 -9 -2 -12 -12z"/>
<path d="M533 1135 c0 -8 4 -12 9 -9 5 3 6 10 3 15 -9 13 -12 11 -12 -6z"/>
<path d="M2890 1139 c0 -5 5 -7 10 -4 6 3 10 8 10 11 0 2 -4 4 -10 4 -5 0 -10
-5 -10 -11z"/>
<path d="M2858 1123 c6 -2 12 -9 12 -14 0 -6 -5 -7 -12 -3 -7 5 -8 3 -3 -5 5
-9 11 -9 17 -3 12 12 2 32 -15 31 -9 0 -9 -2 1 -6z"/>
<path d="M604 998 c-12 -14 -13 -18 -3 -10 9 6 18 10 21 7 2 -3 5 2 5 10 0 19
0 19 -23 -7z"/>
<path d="M675 990 c2 -11 0 -20 -5 -20 -4 0 -10 -6 -13 -14 -4 -10 1 -13 19
-11 20 2 23 -1 19 -16 -4 -11 -2 -19 5 -19 6 0 8 5 5 10 -3 6 2 10 12 10 17 1
17 1 0 11 -9 6 -15 14 -12 20 4 5 1 9 -6 9 -8 0 -9 3 0 13 12 15 5 27 -15 27
-7 0 -11 -8 -9 -20z m15 -30 c0 -5 -5 -10 -11 -10 -5 0 -7 5 -4 10 3 6 8 10
11 10 2 0 4 -4 4 -10z"/>
<path d="M2836 993 c-6 -14 -5 -15 5 -6 7 7 10 15 7 18 -3 3 -9 -2 -12 -12z"/>
<path d="M2760 980 c-13 -8 -13 -10 -1 -10 11 0 10 -4 -5 -16 -17 -14 -17 -15
-1 -10 14 5 17 2 12 -13 -3 -11 -1 -22 4 -26 7 -3 8 0 5 9 -4 9 -1 16 6 16 9
0 10 3 1 13 -13 17 -5 27 23 28 21 0 21 1 1 9 -26 11 -28 11 -45 0z"/>
<path d="M609 963 c-13 -16 -12 -17 4 -4 9 7 17 15 17 17 0 8 -8 3 -21 -13z"/>
<path d="M2712 925 c-9 -19 -7 -26 9 -41 11 -10 19 -14 18 -9 -1 6 1 18 5 27
5 11 2 23 -7 32 -13 13 -16 12 -25 -9z m22 -20 c-4 -8 -11 -12 -17 -8 -8 5 -7
8 1 11 7 2 9 9 6 14 -4 7 -2 8 4 4 6 -4 9 -13 6 -21z"/>
<path d="M660 919 c0 -5 5 -7 10 -4 6 3 10 8 10 11 0 2 -4 4 -10 4 -5 0 -10
-5 -10 -11z"/>
<path d="M675 889 c-4 -6 -5 -12 -2 -15 2 -3 7 2 10 11 7 17 1 20 -8 4z"/>
<path d="M2747 871 c-4 -17 -3 -21 5 -13 5 5 8 16 6 23 -3 8 -7 3 -11 -10z"/>
<path d="M741 834 c0 -11 3 -14 6 -6 3 7 2 16 -1 19 -3 4 -6 -2 -5 -13z"/>
<path d="M746 799 c3 -5 9 -7 14 -4 4 3 11 0 13 -5 3 -6 4 -5 3 1 -1 7 -10 13
-19 15 -9 1 -15 -2 -11 -7z"/>
<path d="M2705 800 c3 -5 8 -10 11 -10 2 0 4 5 4 10 0 6 -5 10 -11 10 -5 0 -7
-4 -4 -10z"/>
<path d="M2656 762 c-3 -5 1 -9 9 -9 8 0 12 4 9 9 -3 4 -7 8 -9 8 -2 0 -6 -4
-9 -8z"/>
<path d="M2590 740 c0 -6 -4 -9 -9 -5 -5 3 -12 1 -16 -4 -3 -6 -13 -7 -21 -4
-10 4 -15 1 -14 -8 4 -25 0 -40 -9 -35 -4 3 -16 0 -25 -7 -16 -12 -16 -14 -2
-26 14 -12 16 -12 10 2 -4 11 0 14 13 12 10 -2 20 -4 23 -4 3 -1 -2 -6 -10
-11 -9 -6 -10 -10 -3 -10 16 0 26 17 14 25 -6 3 -8 12 -5 20 4 8 10 12 15 9 5
-3 7 -10 4 -15 -4 -5 -1 -9 4 -9 16 0 14 11 -6 34 -18 20 -18 20 10 3 15 -10
27 -13 27 -7 0 5 -4 10 -10 10 -5 0 -10 5 -10 10 0 15 24 7 32 -10 5 -11 7 -9
7 7 1 12 -3 25 -9 28 -5 3 -10 1 -10 -5z"/>
<path d="M865 709 c-4 -6 -5 -12 -2 -15 2 -3 7 2 10 11 7 17 1 20 -8 4z"/>
<path d="M895 620 c-3 -5 -1 -10 4 -10 6 0 11 5 11 10 0 6 -2 10 -4 10 -3 0
-8 -4 -11 -10z"/>
<path d="M2396 554 c-24 -24 -19 -30 7 -8 12 10 24 20 26 21 2 2 -1 3 -7 3 -6
0 -18 -7 -26 -16z"/>
<path d="M990 536 c7 -7 13 -7 20 0 6 6 3 10 -10 10 -13 0 -16 -4 -10 -10z"/>
<path d="M1034 536 c1 -8 5 -18 8 -22 4 -3 5 1 4 10 -1 8 -5 18 -8 22 -4 3 -5
-1 -4 -10z"/>
<path d="M1301 533 c17 -27 34 -29 44 -5 5 13 4 14 -6 5 -10 -10 -17 -9 -32 5
-19 16 -19 16 -6 -5z"/>
<path d="M1068 533 c7 -3 16 -2 19 1 4 3 -2 6 -13 5 -11 0 -14 -3 -6 -6z"/>
<path d="M1100 533 c0 -7 5 -15 10 -18 6 -4 8 -11 5 -16 -4 -5 -1 -9 4 -9 15
0 13 11 -4 34 -8 11 -15 15 -15 9z"/>
<path d="M1975 529 c-4 -6 -5 -12 -2 -15 2 -3 7 2 10 11 7 17 1 20 -8 4z"/>
<path d="M2261 506 c-8 -10 -7 -17 6 -27 16 -12 17 -12 6 2 -16 20 -5 33 14
17 7 -6 15 -9 18 -7 2 3 -4 10 -15 16 -14 10 -21 9 -29 -1z"/>
<path d="M2355 509 c-4 -6 -5 -12 -2 -15 2 -3 7 2 10 11 7 17 1 20 -8 4z"/>
<path d="M1190 497 c0 -2 6 -10 14 -16 11 -9 16 -9 22 1 4 7 4 10 -1 6 -4 -4
-14 -3 -22 3 -7 6 -13 9 -13 6z"/>
<path d="M1320 486 c7 -7 13 -7 20 0 6 6 3 10 -10 10 -13 0 -16 -4 -10 -10z"/>
<path d="M1400 479 c-12 -9 -12 -10 4 -5 10 4 26 1 35 -6 14 -12 14 -11 2 5
-16 20 -21 21 -41 6z"/>
<path d="M1740 482 c0 -5 7 -9 15 -9 8 0 12 4 9 9 -3 4 -9 8 -15 8 -5 0 -9 -4
-9 -8z"/>
<path d="M2196 482 c-3 -5 1 -9 9 -9 8 0 12 4 9 9 -3 4 -7 8 -9 8 -2 0 -6 -4
-9 -8z"/>
<path d="M2130 471 c0 -6 4 -13 10 -16 6 -3 7 1 4 9 -7 18 -14 21 -14 7z"/>
<path d="M1310 459 c0 -5 5 -7 10 -4 6 3 10 8 10 11 0 2 -4 4 -10 4 -5 0 -10
-5 -10 -11z"/>
<path d="M1535 460 c3 -5 8 -10 11 -10 2 0 4 5 4 10 0 6 -5 10 -11 10 -5 0 -7
-4 -4 -10z"/>
<path d="M1695 460 c3 -5 8 -10 11 -10 2 0 4 5 4 10 0 6 -5 10 -11 10 -5 0 -7
-4 -4 -10z"/>
<path d="M1840 460 c-9 -6 -10 -10 -3 -10 6 0 15 5 18 10 8 12 4 12 -15 0z"/>
<path d="M1960 460 c-9 -6 -10 -10 -3 -10 6 0 15 5 18 10 8 12 4 12 -15 0z"/>
</g>
</svg>
